<?xml version="1.0" encoding="UTF-8"?>
<svg id="Layer_2" data-name="Layer 2" xmlns="http://www.w3.org/2000/svg" xmlns:xlink="http://www.w3.org/1999/xlink" viewBox="0 0 120 120">
  <defs>
    <linearGradient id="linear-gradient" x1="1.117" y1="-12.14" x2="112.983" y2="124.912" gradientUnits="userSpaceOnUse">
      <stop offset="0" stop-color="#ff1f4a"/>
      <stop offset=".043" stop-color="#d3193d"/>
      <stop offset=".093" stop-color="#a71430"/>
      <stop offset=".149" stop-color="#7f0f24"/>
      <stop offset=".209" stop-color="#5c0b1a"/>
      <stop offset=".274" stop-color="#3f0712"/>
      <stop offset=".346" stop-color="#28040b"/>
      <stop offset=".428" stop-color="#160206"/>
      <stop offset=".525" stop-color="#090102"/>
      <stop offset=".655" stop-color="#020000"/>
      <stop offset=".941" stop-color="#000"/>
    </linearGradient>
  </defs>
  <g id="kitsume-logo">
    <rect x="0" width="120" height="120" rx="18.434" ry="18.434" style="fill: url(#linear-gradient);"/>
    <g id="logo">
      <g id="Mask">
        <g id="Outline_Inner">
          <path d="M59.724,101.953c-7.192,0-13.788-2.021-19.072-5.844-7.007-5.068-10.865-12.738-10.865-21.597v-13.748c0-16.508,13.43-29.938,29.938-29.938s29.938,13.43,29.938,29.938v11.25c0,8.26-3.29,15.95-9.266,21.655-5.594,5.341-12.935,8.282-20.672,8.282Z" style="fill: #fff;"/>
          <path d="M59.725,31.425c16.178,0,29.34,13.162,29.34,29.34v11.251c0,8.094-3.225,15.631-9.081,21.223-5.482,5.235-12.677,8.117-20.259,8.117-7.066,0-13.541-1.982-18.723-5.73-6.847-4.953-10.617-12.451-10.617-21.113v-13.748c0-16.178,13.162-29.34,29.34-29.34m0-1.195h0c-16.864,0-30.535,13.671-30.535,30.535v13.748c0,9.486,4.326,17.172,11.112,22.081,5.278,3.818,12.045,5.957,19.423,5.957h0c8.177,0,15.603-3.214,21.085-8.448,5.823-5.56,9.451-13.4,9.451-22.087v-11.251c0-16.864-13.671-30.535-30.535-30.535h0Z"/>
        </g>
        <path id="Light_Shadow" d="M30.253,70.04s3.275,13.226,13.587,17.24c5.514,2.146,11.248-1.68,12.833-1.677,4.232,.008,1.843,.37,2.398,.247,1.607-.357,3.983,.159,4.316,.288,3.745,1.449,5.115,3.699,13.29,1.644,9.961-2.504,10.662-10.195,11.849-15.767s1.663,2.118-1.117,9.967c-2.825,7.977-10.579,15.185-16.989,17.719-6.41,2.534-12.302,2.492-21.19,.548-4.853-1.061-10.745-5.339-12.536-7.604s-4.11-5.891-5.549-10.823c-1.156-3.962-.891-11.783-.891-11.783Z" style="fill: #d9d9fc;"/>
        <g id="Outline_Outer">
          <path d="M59.725,31.425c16.178,0,29.34,13.162,29.34,29.34v11.251c0,8.094-3.225,15.631-9.081,21.223-5.482,5.235-12.677,8.117-20.259,8.117-7.066,0-13.541-1.982-18.723-5.73-6.847-4.953-10.617-12.451-10.617-21.113v-13.748c0-16.178,13.162-29.34,29.34-29.34m0-1.195h0c-16.864,0-30.535,13.671-30.535,30.535v13.748c0,9.486,4.326,17.172,11.112,22.081,5.278,3.818,12.045,5.957,19.423,5.957h0c8.177,0,15.603-3.214,21.085-8.448,5.823-5.56,9.451-13.4,9.451-22.087v-11.251c0-16.864-13.671-30.535-30.535-30.535h0Z" style="fill: #0b0b0f;"/>
        </g>
        <g id="Nose">
          <path d="M56.818,85.599c1.936,.128,3.879,.128,5.815,0,.482-.033,.723,.529,.382,.897-.99,1.065-1.981,2.097-2.973,3.095-.215,.217-.565,.212-.774-.01-.947-1.001-1.895-2.032-2.84-3.095-.328-.37-.085-.919,.391-.887Z" style="fill: #0b0b0f;"/>
        </g>
        <g id="Ear_Left">
          <g>
            <path d="M86.176,24.742c-3.292,2.282-7.021,13.396-7.021,13.396,1.936,2.115,5.963,7.068,8.168,11.281l.281,.275c.526-.502,2.88-27.945-1.428-24.952Z" style="fill: #ff1f4a;"/>
            <path d="M71.538,33.764l15.786,15.654c-2.205-4.212-6.232-9.166-8.168-11.281,0,0,3.728-11.113,7.021-13.396,4.308-2.993,1.954,24.45,1.428,24.952l-.281-.275c.353,.675,.657,1.326,.902,1.942,.645,1.643,1.506,4.726,1.846,6.124,0,0,4.015-22.998,.46-35.605-3.567-12.649-16.228,5.144-18.654,11.544l-.341,.341Z" style="fill: #fff;"/>
          </g>
          <path d="M71.878,33.424c2.426-6.399,15.087-24.193,18.654-11.544,3.555,12.607-.46,35.605-.46,35.605-.341-1.398-1.201-4.481-1.846-6.124-.245-.615-.55-1.267-.902-1.942-2.205-4.212-6.232-9.166-8.168-11.281,0,0,3.728-11.113,7.021-13.396,4.308-2.993,1.954,24.45,1.428,24.952" style="fill: none; stroke: #0b0b0f; stroke-linecap: round; stroke-miterlimit: 10; stroke-width: 1.195px;"/>
        </g>
        <g id="Ear_Right">
          <g>
            <path d="M33.83,24.742c3.286,2.282,7.015,13.396,7.015,13.396-1.924,2.109-5.945,7.056-8.15,11.263l-.299,.293c-.52-.502-2.874-27.945,1.434-24.952Z" style="fill: #ff1f4a;"/>
            <path d="M32.694,49.401c-.358,.681-.669,1.338-.914,1.96-.645,1.643-1.512,4.726-1.846,6.124,0,0-4.027-22.998-.46-35.605,3.561-12.601,19.251,8.992,19.18,11.066v.627l-15.959,15.828c2.205-4.206,6.226-9.154,8.15-11.263,0,0-3.728-11.113-7.015-13.396-4.308-2.993-1.954,24.45-1.434,24.952l.299-.293Z" style="fill: #fff;"/>
          </g>
          <path d="M48.654,32.946c.072-2.073-15.619-23.667-19.18-11.066-3.567,12.607,.46,35.605,.46,35.605,.335-1.398,1.201-4.481,1.846-6.124,.245-.621,.556-1.279,.914-1.96,2.205-4.206,6.226-9.154,8.15-11.263,0,0-3.728-11.113-7.015-13.396-4.308-2.993-1.954,24.45-1.434,24.952" style="fill: none; stroke: #0b0b0f; stroke-linecap: round; stroke-miterlimit: 10; stroke-width: 1.195px;"/>
        </g>
      </g>
      <g id="Eyes">
        <g id="Eye_Right">
          <path d="M35.894,61.957c2.261,4.56,2.837,6.556,8.508,6.254,4.965-.656,9.914,3.006,10.799,7.949-1.565-1.539-3.156-2.89-5.106-3.802-1.946-.997-3.405-.967-5.614-.862-6.168,.275-9.447-3.205-8.587-9.539h0Z" style="fill: #0b0b0f;"/>
          <g>
            <circle cx="52.797" cy="63.803" r="2.271" style="fill: #ff1f4a;"/>
            <path d="M49.796,60.629c1.837,.25,5.677,.837,5.238,3.425,0,0-.117,.026-.117,.026-.874-.741-1.521-1.107-2.352-1.836-.85-.578-1.813-1.057-2.797-1.5l.027-.116h0Z" style="fill: #ff1f4a;"/>
          </g>
          <path d="M36.346,72.221c.782,.938,1.522,1.855,2.363,2.175,1.085,.45,2.599,.468,3.871,.476,2.315,.194,4.248,2.093,4.966,4.187-1.623-1.038-3.151-2.162-5.013-2.288-3.111,.226-6.158-1.045-6.188-4.551h0Z" style="fill: #ff1f4a;"/>
        </g>
        <g id="Eye_Right-2" data-name="Eye_Right">
          <path d="M83.505,61.957c.856,6.342-2.415,9.81-8.587,9.538-2.208-.105-3.669-.134-5.614,.862-1.95,.913-3.54,2.263-5.106,3.802,.726-3.61,3.493-6.757,7.151-7.708,3.122-.724,6.274,.532,8.932-1.286,1.547-1.123,2.187-3.497,3.224-5.209h0Z" style="fill: #0b0b0f;"/>
          <g>
            <circle cx="66.603" cy="63.803" r="2.271" style="fill: #ff1f4a;"/>
            <path d="M69.631,60.745c-2.01,.82-3.487,2.001-5.149,3.335,0,0-.117-.026-.117-.026-.197-.638,.123-1.307,.513-1.76,1.272-1.146,3.109-1.452,4.725-1.665,0,0,.027,.116,.027,.116h0Z" style="fill: #ff1f4a;"/>
          </g>
          <path d="M83.053,72.221c-.033,3.511-3.075,4.775-6.188,4.551-1.862,.126-3.389,1.249-5.013,2.288,.718-2.094,2.651-3.993,4.966-4.187,1.273-.008,2.786-.026,3.871-.476,.841-.32,1.581-1.237,2.363-2.175h0Z" style="fill: #ff1f4a;"/>
        </g>
      </g>
      <circle id="Red_Sun" cx="59.664" cy="48.736" r="7.385" style="fill: #ff1f4a;"/>
    </g>
  </g>
</svg>