<?xml version="1.0" encoding="UTF-8"?>
<svg id="Layer_2" data-name="Layer 2" xmlns="http://www.w3.org/2000/svg" viewBox="0 0 109.111 143.433">
  <g id="kitsume-logo">
    <g id="logo">
      <g id="Mask">
        <g id="Outline_Inner">
          <path d="M54.095,142.433c-12.039,0-23.078-3.382-31.921-9.78C10.448,124.17,3.99,111.333,3.99,96.507v-23.009c0-27.628,22.477-50.105,50.105-50.105s50.105,22.477,50.105,50.105v18.83c0,13.822-5.507,26.693-15.507,36.242-9.361,8.939-21.648,13.862-34.598,13.862Z" style="fill: #fff;"/>
          <path d="M54.095,24.393c27.077,0,49.105,22.028,49.105,49.105v18.83c0,13.547-5.397,26.161-15.198,35.519-9.175,8.761-21.216,13.586-33.907,13.586-11.827,0-22.662-3.316-31.335-9.591-11.459-8.29-17.77-20.839-17.77-35.336v-23.009c0-27.077,22.028-49.105,49.105-49.105m0-2h0C25.871,22.393,2.99,45.273,2.99,73.498v23.009c0,15.876,7.24,28.739,18.597,36.956,8.834,6.391,20.159,9.97,32.507,9.97h0c13.686,0,26.115-5.379,35.288-14.139,9.746-9.306,15.817-22.427,15.817-36.966v-18.83c0-28.224-22.88-51.105-51.105-51.105h0Z"/>
        </g>
        <path id="Light_Shadow" d="M4.769,89.021s5.481,22.136,22.74,28.854c9.229,3.592,18.825-2.811,21.478-2.806,7.083,.013,3.084,.62,4.013,.413,2.69-.598,6.666,.267,7.223,.482,6.268,2.424,8.561,6.191,22.242,2.752,16.671-4.191,17.844-17.063,19.831-26.388s2.783,3.544-1.87,16.681c-4.729,13.35-17.705,25.415-28.433,29.656-10.728,4.241-20.589,4.171-35.465,.917-8.123-1.776-17.984-8.935-20.981-12.726s-6.879-9.86-9.287-18.115c-1.934-6.631-1.49-19.72-1.49-19.72Z" style="fill: #d9d9fc;"/>
        <g id="Outline_Outer">
          <path d="M54.095,24.393c27.077,0,49.105,22.028,49.105,49.105v18.83c0,13.547-5.397,26.161-15.198,35.519-9.175,8.761-21.216,13.586-33.907,13.586-11.827,0-22.662-3.316-31.335-9.591-11.459-8.29-17.77-20.839-17.77-35.336v-23.009c0-27.077,22.028-49.105,49.105-49.105m0-2h0C25.871,22.393,2.99,45.273,2.99,73.498v23.009c0,15.876,7.24,28.739,18.597,36.956,8.834,6.391,20.159,9.97,32.507,9.97h0c13.686,0,26.115-5.379,35.288-14.139,9.746-9.306,15.817-22.427,15.817-36.966v-18.83c0-28.224-22.88-51.105-51.105-51.105h0Z" style="fill: #0b0b0f;"/>
        </g>
        <g id="Nose">
          <path d="M49.229,115.061c3.24,.215,6.491,.215,9.732,0,.806-.055,1.209,.885,.64,1.501-1.656,1.783-3.316,3.51-4.976,5.18-.36,.363-.945,.355-1.296-.017-1.586-1.675-3.171-3.402-4.753-5.179-.55-.62-.142-1.539,.654-1.485Z" style="fill: #0b0b0f;"/>
        </g>
        <g id="Ear_Left">
          <g>
            <path d="M73.87,28.309l26.4,26.18c-3.69-7.04-10.42-15.33-13.65-18.86,0,0,6.24-18.6,11.74-22.42,7.22-5.01,3.28,40.92,2.4,41.76l-.49-.48c.6,1.13,1.11,2.23,1.52,3.27,1.09,2.75,2.53,7.91,3.1,10.25,0,0,6.71-38.49,.76-59.59-5.96-21.17-27.16,8.61-31.21,19.32l-.57,.57Z" style="fill: #fff;"/>
            <path d="M98.36,13.209c-5.5,3.82-11.74,22.42-11.74,22.42,3.23,3.53,9.96,11.82,13.65,18.86l.49,.48c.88-.84,4.82-46.77-2.4-41.76Z" style="fill: #ff1f4a;"/>
          </g>
          <path d="M74.44,27.739c4.05-10.71,25.25-40.49,31.21-19.32,5.95,21.1-.76,59.59-.76,59.59-.57-2.34-2.01-7.5-3.1-10.25-.41-1.04-.92-2.14-1.52-3.27-3.69-7.04-10.42-15.33-13.65-18.86,0,0,6.24-18.6,11.74-22.42,7.22-5.01,3.28,40.92,2.4,41.76" style="fill: none; stroke: #0b0b0f; stroke-linecap: round; stroke-miterlimit: 10; stroke-width: 2px;"/>
        </g>
        <g id="Ear_Right">
          <g>
            <path d="M35.57,26.939v1.05L8.85,54.489c3.69-7.04,10.42-15.33,13.65-18.86,0,0-6.24-18.6-11.74-22.42-7.22-5.01-3.28,40.92-2.4,41.76l.49-.48c-.6,1.13-1.11,2.23-1.52,3.27-1.09,2.75-2.53,7.91-3.1,10.25,0,0-6.73-38.49-.76-59.59,5.96-21.09,32.22,15.05,32.1,18.52Z" style="fill: #fff;"/>
            <path d="M10.76,13.209c5.5,3.82,11.74,22.42,11.74,22.42-3.23,3.53-9.96,11.82-13.65,18.86l-.49,.48c-.88-.84-4.82-46.77,2.4-41.76Z" style="fill: #ff1f4a;"/>
          </g>
          <path d="M35.57,26.939c.12-3.47-26.14-39.61-32.1-18.52-5.97,21.1,.76,59.59,.76,59.59,.57-2.34,2.01-7.5,3.1-10.25,.41-1.04,.92-2.14,1.52-3.27,3.69-7.04,10.42-15.33,13.65-18.86,0,0-6.24-18.6-11.74-22.42-7.22-5.01-3.28,40.92-2.4,41.76" style="fill: none; stroke: #0b0b0f; stroke-linecap: round; stroke-miterlimit: 10; stroke-width: 2px;"/>
        </g>
      </g>
      <g id="Eyes">
        <g id="Eye_Right">
          <path d="M14.211,75.493c1.732,2.861,2.823,6.836,5.396,8.719,4.452,3.043,9.72,.94,14.948,2.152,6.123,1.599,10.76,6.837,11.968,12.899-2.62-2.575-5.294-4.824-8.546-6.363-3.256-1.668-5.699-1.619-9.395-1.443-10.487,.337-15.723-5.184-14.371-15.964h0Z" style="fill: #0b0b0f;"/>
          <g>
            <circle cx="42.5" cy="78.583" r="3.802" style="fill: #ff1f4a;"/>
            <path d="M37.478,73.27c3.008,.351,9.599,1.519,8.767,5.733,0,0-.195,.044-.195,.044-1.493-1.281-2.251-1.607-3.936-3.072-1.436-.936-3.026-1.788-4.682-2.51l.046-.195h0Z" style="fill: #ff1f4a;"/>
          </g>
          <path d="M14.968,92.671c1.306,1.573,2.552,3.099,3.955,3.641,1.439,.585,3.223,.737,5.009,.778,4.416-.39,8.45,3.027,9.782,7.027-2.418-1.611-4.674-3.074-7.326-3.721-.678-.136-1.028-.122-1.732-.094-4.948,.225-9.631-2.016-9.687-7.631h0Z" style="fill: #ff1f4a;"/>
        </g>
        <g id="Eye_Right-2" data-name="Eye_Right">
          <path d="M93.895,75.493c1.348,10.79-3.881,16.297-14.371,15.964-1.902-.059-3.555-.158-4.993,.031-3.051,.406-6.234,2.182-8.773,4.097-1.409,1.098-2.806,2.32-4.175,3.679,.732-3.946,3.04-7.494,6.19-9.99,1.6-1.291,3.534-2.382,5.778-2.91,3.908-.918,7.395,.03,10.964-.622,5.77-.651,6.869-5.79,9.38-10.249h0Z" style="fill: #0b0b0f;"/>
          <g>
            <circle cx="65.607" cy="78.583" r="3.802" style="fill: #ff1f4a;"/>
            <path d="M70.674,73.465c-2.442,1.029-4.696,2.384-6.598,4.062-.661,.448-1.274,.815-2.02,1.52l-.195-.044c-.331-1.068,.207-2.188,.858-2.946,1.393-1.405,3.386-1.818,5.183-2.354,.907-.191,1.805-.367,2.725-.433l.046,.195h0Z" style="fill: #ff1f4a;"/>
          </g>
          <path d="M93.139,92.671c-.032,5.586-4.772,7.874-9.687,7.631-.703-.028-1.055-.042-1.732,.094-2.653,.648-4.907,2.11-7.326,3.721,1.331-4,5.366-7.417,9.782-7.027,1.786-.041,3.57-.193,5.009-.778,1.402-.541,2.649-2.067,3.955-3.641h0Z" style="fill: #ff1f4a;"/>
        </g>
      </g>
      <circle id="Red_Sun" cx="53.993" cy="53.365" r="12.36" style="fill: #ff1f4a;"/>
    </g>
  </g>
</svg>