<?xml version="1.0" encoding="UTF-8"?>
<svg id="Layer_2" data-name="Layer 2" xmlns="http://www.w3.org/2000/svg" viewBox="0 0 122.535 122.535">
  <g id="kitsume-logo">
    <g>
      <rect width="122.535" height="122.535" rx="20.232" ry="20.232" style="fill: #000a12;"/>
      <g id="logo">
        <g id="Mask">
          <g id="Outline_Inner">
            <path d="M60.992,103.221c-7.192,0-13.788-2.021-19.072-5.844-7.007-5.067-10.865-12.737-10.865-21.597v-13.748c0-16.508,13.43-29.938,29.938-29.938s29.938,13.43,29.938,29.938v11.251c0,8.259-3.29,15.949-9.266,21.654-5.593,5.342-12.935,8.283-20.672,8.283Z" style="fill: #fff;"/>
            <path d="M60.992,32.692c16.178,0,29.34,13.162,29.34,29.34v11.251c0,8.094-3.225,15.631-9.081,21.223-5.482,5.235-12.677,8.117-20.259,8.117-7.066,0-13.541-1.982-18.723-5.73-6.847-4.953-10.617-12.451-10.617-21.113v-13.748c0-16.178,13.162-29.34,29.34-29.34m0-1.195h0c-16.864,0-30.535,13.671-30.535,30.535v13.748c0,9.486,4.326,17.172,11.112,22.081,5.278,3.818,12.045,5.957,19.423,5.957h0c8.177,0,15.603-3.214,21.085-8.448,5.823-5.56,9.451-13.4,9.451-22.087v-11.251c0-16.864-13.671-30.535-30.535-30.535h0Z"/>
          </g>
          <path id="Light_Shadow" d="M31.52,71.308s3.275,13.226,13.587,17.24c5.514,2.146,11.248-1.68,12.833-1.677,4.232,.008,1.843,.37,2.398,.247,1.607-.357,3.983,.159,4.316,.288,3.745,1.449,5.115,3.699,13.29,1.644,9.961-2.504,10.662-10.195,11.849-15.767,1.187-5.572,1.663,2.118-1.117,9.967-2.825,7.977-10.579,15.185-16.989,17.719s-12.302,2.492-21.19,.548c-4.853-1.061-10.745-5.339-12.536-7.604s-4.11-5.891-5.549-10.823c-1.156-3.962-.891-11.783-.891-11.783Z" style="fill: #d9d9fc;"/>
          <g id="Outline_Outer">
            <path d="M60.992,32.692c16.178,0,29.34,13.162,29.34,29.34v11.251c0,8.094-3.225,15.631-9.081,21.223-5.482,5.235-12.677,8.117-20.259,8.117-7.066,0-13.541-1.982-18.723-5.73-6.847-4.953-10.617-12.451-10.617-21.113v-13.748c0-16.178,13.162-29.34,29.34-29.34m0-1.195h0c-16.864,0-30.535,13.671-30.535,30.535v13.748c0,9.486,4.326,17.172,11.112,22.081,5.278,3.818,12.045,5.957,19.423,5.957h0c8.177,0,15.603-3.214,21.085-8.448,5.823-5.56,9.451-13.4,9.451-22.087v-11.251c0-16.864-13.671-30.535-30.535-30.535h0Z" style="fill: #0b0b0f;"/>
          </g>
          <g id="Nose">
            <path d="M58.085,86.866c1.936,.128,3.879,.128,5.815,0,.482-.033,.723,.529,.382,.897-.99,1.065-1.981,2.097-2.973,3.095-.215,.217-.565,.212-.774-.01-.947-1.001-1.895-2.032-2.84-3.095-.329-.37-.085-.919,.391-.887Z" style="fill: #0b0b0f;"/>
          </g>
          <g id="Ear_Left">
            <g>
              <path d="M87.439,26.01c-3.286,2.282-7.015,13.396-7.015,13.396,1.93,2.115,5.957,7.062,8.162,11.275l.287,.281c.526-.502,2.88-27.945-1.434-24.952Z" style="fill: #ff1f4a;"/>
              <path d="M88.586,50.68c.358,.675,.663,1.326,.908,1.948,.645,1.643,1.506,4.726,1.846,6.124,0,0,4.009-22.998,.46-35.605-3.567-12.649-16.234,5.144-18.654,11.544l-.341,.341,15.78,15.648c-2.205-4.212-6.232-9.16-8.162-11.275,0,0,3.728-11.113,7.015-13.396,4.314-2.993,1.96,24.45,1.434,24.952l-.287-.281Z" style="fill: #fff;"/>
            </g>
            <path d="M73.147,34.691c2.42-6.399,15.087-24.193,18.654-11.544,3.549,12.607-.46,35.605-.46,35.605-.341-1.398-1.201-4.481-1.846-6.124-.245-.621-.55-1.273-.908-1.948-2.205-4.212-6.232-9.16-8.162-11.275,0,0,3.728-11.113,7.015-13.396,4.314-2.993,1.96,24.45,1.434,24.952" style="fill: none; stroke: #0b0b0f; stroke-linecap: round; stroke-miterlimit: 10; stroke-width: 1.195px;"/>
          </g>
          <g id="Ear_Right">
            <g>
              <path d="M35.098,26.01c3.286,2.282,7.015,13.396,7.015,13.396-1.924,2.109-5.951,7.062-8.156,11.269l-.293,.287c-.526-.502-2.874-27.945,1.434-24.952Z" style="fill: #ff1f4a;"/>
              <path d="M33.957,50.674c-.358,.675-.663,1.332-.908,1.954-.645,1.643-1.512,4.726-1.852,6.124,0,0-4.021-22.998-.454-35.605,3.561-12.601,19.251,8.992,19.18,11.066v.627l-15.965,15.834c2.205-4.206,6.232-9.16,8.156-11.269,0,0-3.728-11.113-7.015-13.396-4.308-2.993-1.96,24.45-1.434,24.952l.293-.287Z" style="fill: #fff;"/>
            </g>
            <path d="M49.922,34.213c.072-2.073-15.619-23.667-19.18-11.066-3.567,12.607,.454,35.605,.454,35.605,.341-1.398,1.207-4.481,1.852-6.124,.245-.621,.55-1.279,.908-1.954,2.205-4.206,6.232-9.16,8.156-11.269,0,0-3.728-11.113-7.015-13.396-4.308-2.993-1.96,24.45-1.434,24.952" style="fill: none; stroke: #0b0b0f; stroke-linecap: round; stroke-miterlimit: 10; stroke-width: 1.195px;"/>
          </g>
        </g>
        <g id="Eyes">
          <g id="Eye_Right">
            <path d="M37.162,63.224c2.261,4.56,2.837,6.556,8.508,6.254,4.965-.656,9.914,3.006,10.799,7.949-1.565-1.539-3.157-2.889-5.106-3.802-1.946-.997-3.405-.967-5.614-.862-6.168,.275-9.447-3.205-8.587-9.539h0Z" style="fill: #0b0b0f;"/>
            <g>
              <circle cx="54.064" cy="65.071" r="2.271" style="fill: #ff1f4a;"/>
              <path d="M51.064,61.896c1.837,.25,5.677,.837,5.238,3.425,0,0-.117,.026-.117,.026-.874-.741-1.521-1.107-2.352-1.836-.85-.577-1.813-1.057-2.797-1.5l.027-.116h0Z" style="fill: #ff1f4a;"/>
            </g>
            <path d="M37.614,73.488c.782,.938,1.522,1.855,2.363,2.175,1.085,.45,2.599,.468,3.871,.476,2.315,.194,4.248,2.093,4.966,4.187-1.623-1.038-3.151-2.162-5.013-2.288-3.111,.226-6.158-1.045-6.188-4.551h0Z" style="fill: #ff1f4a;"/>
          </g>
          <g id="Eye_Right-2" data-name="Eye_Right">
            <path d="M84.773,63.224c.856,6.342-2.415,9.81-8.587,9.538-2.208-.105-3.669-.134-5.614,.862-1.95,.913-3.54,2.263-5.106,3.802,.726-3.61,3.493-6.757,7.151-7.708,3.122-.724,6.275,.532,8.932-1.286,1.547-1.123,2.187-3.497,3.224-5.209h0Z" style="fill: #0b0b0f;"/>
            <g>
              <circle cx="67.871" cy="65.071" r="2.271" style="fill: #ff1f4a;"/>
              <path d="M70.899,62.013c-2.01,.82-3.487,2.001-5.149,3.335,0,0-.117-.026-.117-.026-.197-.638,.123-1.307,.513-1.76,1.272-1.146,3.109-1.452,4.725-1.665,0,0,.027,.116,.027,.116h0Z" style="fill: #ff1f4a;"/>
            </g>
            <path d="M84.321,73.488c-.033,3.511-3.075,4.775-6.188,4.551-1.862,.126-3.389,1.249-5.013,2.288,.718-2.094,2.651-3.993,4.966-4.187,1.273-.008,2.786-.026,3.871-.476,.841-.32,1.581-1.237,2.363-2.175h0Z" style="fill: #ff1f4a;"/>
          </g>
        </g>
        <circle id="Red_Sun" cx="60.932" cy="50.003" r="7.385" style="fill: #ff1f4a;"/>
      </g>
    </g>
  </g>
</svg>